<svg xmlns="http://www.w3.org/2000/svg" xml:space="preserve" width="964.878px" height="1000px" x="0px" y="0px" viewBox="0 0 964.878 1000"><path fill="#1CEBC8" d="M481.718.435 363.47 205.22l118.192 204.811L599.935 205.22z"/><path fill="#FF5000" d="M481.662 410.031H245.253L127.011 205.22H363.47zM481.662 410.031 599.935 205.22h236.446L718.183 410.031z"/><path d="M84.727 687.189c-1.028-7.059-6.841-19.044-25.16-19.02-12.543 0-20.678 7.949-20.678 16.221 0 7.305 4.557 12.654 14.945 14.512l20.288 3.838c28.782 5.374 43.702 23.873 43.702 45.442 0 23.699-19.786 47.844-55.83 47.844-41.814 0-59.836-27.142-61.941-48.438l30.974-7.479c1.288 13.893 10.624 26.052 31.363 26.052 13.206 0 21.31-6.39 21.31-15.774 0-7.652-6.209-13.199-16.183-15.23l-20.678-3.838c-25.68-4.903-41.207-21.941-41.207-44.353 0-28.577 25.154-48.636 54.177-48.636 37.759 0 52.048 22.584 55.205 40.315l-30.287 8.544zM133.716 792.857V686.743h30.912v12.159c5.423-9.361 19.031-15.354 30.583-15.354 15.131 0 25.94 6.166 31.388 16.666 8.308-11.961 18.468-16.666 32.781-16.666 20.078 0 39.232 11.713 39.232 40.539v68.77l-31.314-.025v-61.488c0-10.055-5.393-17.855-16.864-17.855-11.497-.025-17.731 8.767-17.731 18.127v61.217l-31.97.025v-61.514c0-10.055-5.337-17.881-17.075-17.881-11.317 0-17.526 8.792-17.526 18.301v61.094h-32.416zM334.608 635.333c10.686 0 19.204 8.519 19.204 18.92 0 10.524-8.519 19.093-19.204 19.093-10.209 0-18.839-8.568-18.839-19.093 0-10.401 8.63-18.92 18.839-18.92m-16.023 51.41H351.1v106.089h-32.515V686.743zM371.444 638.33h32.465v154.502h-32.465zM522.423 762.348c-5.213 18.35-22.027 33.679-48.97 33.679-29.259 0-55.279-20.925-55.279-56.585 0-34.15 25.42-55.918 52.964-55.918 32.836 0 53.094 20.282 53.094 54.432 0 4.531-.396 9.436-.619 10.079h-73.791c.662 11.985 11.527 20.455 24.083 20.455 11.731 0 18.313-5.498 21.304-13.843l27.214 7.701zm-29.58-35.215c-.415-8.146-5.863-18.003-21.229-18.003-13.707 0-20.467 10.054-21.13 18.003h42.359zM562.232 790.752c2.018 10.252 10.611 17.656 22.696 17.656 16.245 0 26.3-7.825 26.3-27.116v-4.878c-3.926 5.77-13.101 11.961-28.381 11.961-28.168 0-49.279-22.214-49.279-51.732 0-27.959 20.244-51.757 49.279-51.757 17.299 0 26.474 7.554 29.396 13.149v-11.292h30.979v92.864c0 30.484-17.087 56.982-56.709 56.982-30.547 0-49.998-18.746-52.945-37.814l28.664-8.023zm49.219-54.109c0-14.388-10.401-23.427-22.709-23.427-12.085 0-22.733 9.039-22.733 23.427-.024 14.586 9.856 23.575 22.733 23.575 13.248 0 22.709-8.989 22.709-23.575M738.588 779.236c-4.606 10.203-15.354 16.543-28.565 16.543-31.091 0-52.648-23.601-52.648-56.338 0-31.6 20.195-55.918 51.547-55.918 19.019 0 27.34 10.5 29.494 15.379v-12.135h31.363v87.096c0 9.807.606 16.641.867 18.969h-31.24c-.272-2.328-.817-8.073-.817-12.605v-.991zm-24.355-11.341c13.051 0 24.183-10.277 24.183-28.206 0-18.425-10.871-28.008-24.183-28.008-13.78 0-24.231 9.583-24.256 28.008.024 17.457 10.896 28.206 24.256 28.206M830.785 686.743h20.629v28.454h-20.629v39.646c0 8.791 4.693 11.07 11.764 11.07 3.342 0 6.562-.619 8.443-1.065v26.968c-1.201.595-6.563 2.973-16.863 2.973-21.916 0-35.389-13.051-35.389-34.175v-45.417l-18.696.024v-28.479h5.25c11.218 0 16.443-7.479 16.443-17.285v-13.67h29.048v30.956zM963.074 762.348c-5.176 18.35-21.953 33.679-48.934 33.679-29.246 0-55.224-20.9-55.224-56.585 0-34.15 25.358-55.918 52.945-55.918 32.837 0 53.069 20.282 53.069 54.432 0 4.531-.421 9.436-.569 10.079H890.49c.582 11.985 11.565 20.455 24.07 20.455 11.738 0 18.375-5.498 21.396-13.843l27.118 7.701zm-29.506-35.215c-.459-8.146-5.919-18.003-21.31-18.003-13.571 0-20.455 10.054-21.186 18.003h42.496zM371.562 953.055h-16.468v45.046h-15.385V887.975h41.479c20.82 0 33.716 14.611 33.716 32.788 0 15.824-10.098 28.106-26.72 31.228l26.256 46.11h-17.712l-25.166-45.046zm6.834-13.67c12.425 0 20.814-7.28 20.814-18.622 0-11.664-8.389-19.118-20.814-19.118h-23.303v37.74h23.303zM454.973 953.055v45.046h-15.23V887.975h40.086c20.355 0 34.025 14.141 34.025 32.615 0 18.646-13.67 32.465-34.025 32.465h-24.856zm22.058-13.67c13.206 0 21.285-7.28 21.285-18.622 0-11.664-8.079-19.118-21.285-19.118h-22.058v37.74h22.058zM529.371 942.977c0-36.824 27.648-57.329 55.311-57.329 24.541 0 43.336 13.669 48.934 34.942l-14.141 4.828c-4.656-16.938-17.088-25.804-34.793-25.804-20.506 0-39.771 14.14-39.771 43.362 0 29.196 19.266 43.633 39.771 43.633 20.504 0 33.084-12.406 35.115-27.487h-44.439v-13.67h59.817c.148 1.238.148 2.649.148 3.888 0 27.959-17.235 51.088-50.642 51.088-27.662 0-55.31-20.653-55.31-57.451z"/></svg>